{
    "accessors" : [
        {
            "bufferView" : 0,
            "componentType" : 5123,
            "count" : 36,
            "max" : [
                23
            ],
            "min" : [
                0
            ],
            "type" : "SCALAR"
        },
        {
            "bufferView" : 1,
            "componentType" : 5126,
            "count" : 24,
            "max" : [
                1.0,
                1.0,
                1.0
            ],
            "min" : [
                -1.0,
                -1.0,
                -1.0
            ],
            "type" : "VEC3"
        },
        {
            "bufferView" : 2,
            "componentType" : 5126,
            "count" : 24,
            "max" : [
                1.0,
                1.0,
                1.0
            ],
            "min" : [
                -1.0,
                -1.0,
                -1.0
            ],
            "type" : "VEC3"
        },
        {
            "bufferView" : 3,
            "componentType" : 5123,
            "count" : 1944,
            "max" : [
                1295
            ],
            "min" : [
                0
            ],
            "type" : "SCALAR"
        },
        {
            "bufferView" : 4,
            "componentType" : 5126,
            "count" : 1296,
            "max" : [
                1.0000004768371582,
                11.0,
                1.0000005960464478
            ],
            "min" : [
                -1.0000003576278687,
                -1.0,
                -1.0000003576278687
            ],
            "type" : "VEC3"
        },
        {
            "bufferView" : 5,
            "componentType" : 5126,
            "count" : 1296,
            "max" : [
                1.0,
                1.0,
                1.0
            ],
            "min" : [
                -1.0,
                -1.0,
                -1.0
            ],
            "type" : "VEC3"
        },
        {
            "bufferView" : 6,
            "componentType" : 5126,
            "count" : 1296,
            "max" : [
                1.0,
                1.7687847503111698e-05,
                1.586426606081659e-06,
                1.0
            ],
            "min" : [
                0.0,
                -1.991604767681565e-05,
                -1.0,
                -1.0
            ],
            "type" : "VEC4"
        },
        {
            "bufferView" : 7,
            "componentType" : 5126,
            "count" : 1296,
            "max" : [
                1.0014195442199707,
                1.9985808730125427
            ],
            "min" : [
                -0.9985808730125427,
                -0.5
            ],
            "type" : "VEC2"
        },
        {
            "bufferView" : 8,
            "componentType" : 5123,
            "count" : 1944,
            "max" : [
                1295
            ],
            "min" : [
                0
            ],
            "type" : "SCALAR"
        },
        {
            "bufferView" : 9,
            "componentType" : 5126,
            "count" : 1296,
            "max" : [
                1.0000004768371582,
                11.0,
                1.0000005960464478
            ],
            "min" : [
                -1.0000003576278687,
                -1.0,
                -1.0000003576278687
            ],
            "type" : "VEC3"
        },
        {
            "bufferView" : 10,
            "componentType" : 5126,
            "count" : 1296,
            "max" : [
                1.0,
                1.0,
                1.0
            ],
            "min" : [
                -1.0,
                -1.0,
                -1.0
            ],
            "type" : "VEC3"
        },
        {
            "bufferView" : 11,
            "componentType" : 5126,
            "count" : 1296,
            "max" : [
                1.0,
                1.7687847503111698e-05,
                1.586426606081659e-06,
                1.0
            ],
            "min" : [
                0.0,
                -1.991604767681565e-05,
                -1.0,
                -1.0
            ],
            "type" : "VEC4"
        },
        {
            "bufferView" : 12,
            "componentType" : 5126,
            "count" : 1296,
            "max" : [
                1.0014195442199707,
                1.9985808730125427
            ],
            "min" : [
                -0.9985808730125427,
                -0.5
            ],
            "type" : "VEC2"
        },
        {
            "bufferView" : 13,
            "componentType" : 5123,
            "count" : 324,
            "max" : [
                193
            ],
            "min" : [
                0
            ],
            "type" : "SCALAR"
        },
        {
            "bufferView" : 14,
            "componentType" : 5126,
            "count" : 194,
            "max" : [
                1.0,
                1.0,
                1.2596416473388672
            ],
            "min" : [
                -1.0,
                -1.0,
                -0.7403583526611328
            ],
            "type" : "VEC3"
        },
        {
            "bufferView" : 15,
            "componentType" : 5126,
            "count" : 194,
            "max" : [
                1.0,
                1.0,
                1.0
            ],
            "min" : [
                -1.0,
                -1.0,
                -1.0
            ],
            "type" : "VEC3"
        },
        {
            "bufferView" : 16,
            "componentType" : 5126,
            "count" : 194,
            "max" : [
                1.0,
                4.0736517803452443e-07,
                1.0543527650952456e-06,
                1.0
            ],
            "min" : [
                0.0,
                -1.0871609674723004e-06,
                -1.0,
                -1.0
            ],
            "type" : "VEC4"
        },
        {
            "bufferView" : 17,
            "componentType" : 5126,
            "count" : 194,
            "max" : [
                1.8869435787200928,
                1.4089162349700928
            ],
            "min" : [
                -0.4089162349700928,
                -0.2999999523162842
            ],
            "type" : "VEC2"
        }
    ],
    "asset" : {
        "generator" : "Khronos Blender glTF 2.0 exporter",
        "version" : "2.0"
    },
    "bufferViews" : [
        {
            "buffer" : 0,
            "byteLength" : 72,
            "byteOffset" : 0,
            "target" : 34963
        },
        {
            "buffer" : 0,
            "byteLength" : 288,
            "byteOffset" : 72,
            "target" : 34962
        },
        {
            "buffer" : 0,
            "byteLength" : 288,
            "byteOffset" : 360,
            "target" : 34962
        },
        {
            "buffer" : 0,
            "byteLength" : 3888,
            "byteOffset" : 648,
            "target" : 34963
        },
        {
            "buffer" : 0,
            "byteLength" : 15552,
            "byteOffset" : 4536,
            "target" : 34962
        },
        {
            "buffer" : 0,
            "byteLength" : 15552,
            "byteOffset" : 20088,
            "target" : 34962
        },
        {
            "buffer" : 0,
            "byteLength" : 20736,
            "byteOffset" : 35640,
            "target" : 34962
        },
        {
            "buffer" : 0,
            "byteLength" : 10368,
            "byteOffset" : 56376,
            "target" : 34962
        },
        {
            "buffer" : 0,
            "byteLength" : 3888,
            "byteOffset" : 66744,
            "target" : 34963
        },
        {
            "buffer" : 0,
            "byteLength" : 15552,
            "byteOffset" : 70632,
            "target" : 34962
        },
        {
            "buffer" : 0,
            "byteLength" : 15552,
            "byteOffset" : 86184,
            "target" : 34962
        },
        {
            "buffer" : 0,
            "byteLength" : 20736,
            "byteOffset" : 101736,
            "target" : 34962
        },
        {
            "buffer" : 0,
            "byteLength" : 10368,
            "byteOffset" : 122472,
            "target" : 34962
        },
        {
            "buffer" : 0,
            "byteLength" : 648,
            "byteOffset" : 132840,
            "target" : 34963
        },
        {
            "buffer" : 0,
            "byteLength" : 2328,
            "byteOffset" : 133488,
            "target" : 34962
        },
        {
            "buffer" : 0,
            "byteLength" : 2328,
            "byteOffset" : 135816,
            "target" : 34962
        },
        {
            "buffer" : 0,
            "byteLength" : 3104,
            "byteOffset" : 138144,
            "target" : 34962
        },
        {
            "buffer" : 0,
            "byteLength" : 1552,
            "byteOffset" : 141248,
            "target" : 34962
        }
    ],
    "buffers" : [
        {
            "byteLength" : 142800,
            "uri" : "pillar.bin"
        }
    ],
    "images" : [
        {
            "name" : "Concrete_009_COLOR",
            "uri" : "Concrete_009_COLOR.jpg"
        },
        {
            "name" : "Concrete_011_NORM",
            "uri" : "Concrete_011_NORM.jpg"
        },
        {
            "name" : "Concrete_011_COLOR",
            "uri" : "Concrete_011_COLOR.jpg"
        }
    ],
    "materials" : [
        {
            "name" : "Material",
            "normalTexture" : {
                "index" : 1
            },
            "pbrMetallicRoughness" : {
                "baseColorTexture" : {
                    "index" : 0
                },
                "metallicFactor" : 0.20000000298023224,
                "roughnessFactor" : 0.5
            }
        },
        {
            "alphaMode" : "BLEND",
            "name" : "Material.001",
            "normalTexture" : {
                "index" : 1
            },
            "pbrMetallicRoughness" : {
                "baseColorFactor" : [
                    0.29626578092575073,
                    0.29626578092575073,
                    0.29626578092575073,
                    1.0
                ],
                "baseColorTexture" : {
                    "index" : 2
                },
                "metallicFactor" : 0.20000000298023224,
                "roughnessFactor" : 0.5
            }
        },
        {
            "alphaMode" : "BLEND",
            "name" : "Material.002",
            "pbrMetallicRoughness" : {
                "baseColorFactor" : [
                    1.0,
                    1.0,
                    1.0,
                    0.2657355070114136
                ],
                "metallicFactor" : 0.7636363506317139,
                "roughnessFactor" : 0.0
            }
        }
    ],
    "meshes" : [
        {
            "name" : "Cube.008",
            "primitives" : [
                {
                    "attributes" : {
                        "NORMAL" : 2,
                        "POSITION" : 1
                    },
                    "indices" : 0,
                    "material" : 2
                }
            ]
        },
        {
            "name" : "Cube",
            "primitives" : [
                {
                    "attributes" : {
                        "NORMAL" : 5,
                        "POSITION" : 4,
                        "TANGENT" : 6,
                        "TEXCOORD_0" : 7
                    },
                    "indices" : 3,
                    "material" : 1
                }
            ]
        },
        {
            "name" : "Cube.007",
            "primitives" : [
                {
                    "attributes" : {
                        "NORMAL" : 10,
                        "POSITION" : 9,
                        "TANGENT" : 11,
                        "TEXCOORD_0" : 12
                    },
                    "indices" : 8,
                    "material" : 1
                }
            ]
        },
        {
            "name" : "Cube.006",
            "primitives" : [
                {
                    "attributes" : {
                        "NORMAL" : 15,
                        "POSITION" : 14,
                        "TANGENT" : 16,
                        "TEXCOORD_0" : 17
                    },
                    "indices" : 13,
                    "material" : 0
                }
            ]
        }
    ],
    "nodes" : [
        {
            "name" : "Camera",
            "rotation" : [
                0.483536034822464,
                0.33687159419059753,
                -0.20870360732078552,
                0.7804827094078064
            ],
            "translation" : [
                7.481131553649902,
                5.34366512298584,
                6.5076398849487305
            ]
        },
        {
            "mesh" : 1,
            "name" : "Cube",
            "scale" : [
                0.4999997615814209,
                0.5,
                0.24999988079071045
            ],
            "translation" : [
                0.0,
                0.5,
                -0.0
            ]
        },
        {
            "mesh" : 3,
            "name" : "Cube.001",
            "scale" : [
                0.125,
                0.6000000238418579,
                0.625
            ],
            "translation" : [
                -0.22611300647258759,
                0.6000000238418579,
                0.7229685187339783
            ]
        },
        {
            "mesh" : 2,
            "name" : "Cube.002",
            "scale" : [
                0.4999997615814209,
                0.5,
                0.24999988079071045
            ],
            "translation" : [
                0.0,
                0.5,
                5.5
            ]
        },
        {
            "mesh" : 0,
            "name" : "Cube.003",
            "scale" : [
                0.009999999776482582,
                1.0,
                2.5
            ],
            "translation" : [
                -0.2222726196050644,
                2.200000047683716,
                2.75
            ]
        },
        {
            "name" : "Lamp",
            "rotation" : [
                0.16907575726509094,
                0.7558802962303162,
                -0.27217137813568115,
                0.570947527885437
            ],
            "scale" : [
                1.0,
                1.0,
                0.9999999403953552
            ],
            "translation" : [
                1.141278862953186,
                4.792130470275879,
                0.39193814992904663
            ]
        },
        {
            "name" : "Lamp.001",
            "rotation" : [
                0.16907575726509094,
                0.7558802962303162,
                -0.27217137813568115,
                0.570947527885437
            ],
            "scale" : [
                1.0,
                1.0,
                0.9999999403953552
            ],
            "translation" : [
                15.98828125,
                9.766622543334961,
                -10.22477912902832
            ]
        }
    ],
    "samplers" : [
        {}
    ],
    "scene" : 0,
    "scenes" : [
        {
            "name" : "Scene",
            "nodes" : [
                4,
                3,
                6,
                2,
                1,
                5,
                0
            ]
        }
    ],
    "textures" : [
        {
            "sampler" : 0,
            "source" : 0
        },
        {
            "sampler" : 0,
            "source" : 1
        },
        {
            "sampler" : 0,
            "source" : 2
        },
        {
            "sampler" : 0,
            "source" : 1
        }
    ]
}
